<?xml version="1.0" standalone="no"?>
<!DOCTYPE svg PUBLIC "-//W3C//DTD SVG 20010904//EN"
 "http://www.w3.org/TR/2001/REC-SVG-20010904/DTD/svg10.dtd">
<svg version="1.0" xmlns="http://www.w3.org/2000/svg"
 width="246.000000pt" height="99.000000pt" viewBox="0 0 246.000000 99.000000"
 preserveAspectRatio="xMidYMid meet">

<g transform="translate(0.000000,99.000000) scale(0.100000,-0.100000)"
fill="#000000" stroke="none">
<path d="M1597 338 c-12 -28 -11 -34 8 -54 38 -41 118 -56 185 -34 24 8 24 8
-6 9 -43 1 -58 22 -50 71 l6 40 -65 0 c-64 0 -65 -1 -78 -32z"/>
<path d="M1298 353 c-11 -3 -18 -14 -18 -27 0 -12 -6 -28 -12 -35 -10 -11 -10
-12 -1 -7 7 4 27 -3 44 -16 25 -18 43 -23 92 -22 34 0 78 7 97 16 l35 15 -52
-5 c-50 -4 -52 -3 -59 22 -3 14 -4 35 -1 46 5 18 0 20 -51 19 -32 -1 -65 -3
-74 -6z"/>
<path d="M1930 338 c0 -64 63 -98 177 -98 l78 1 -39 14 c-49 17 -57 25 -65 67
l-7 33 -72 3 c-70 3 -72 2 -72 -20z"/>
<path d="M1065 333 c-57 -6 -68 -19 -41 -48 41 -44 110 -57 177 -33 l34 13
-35 5 c-29 4 -37 11 -45 38 -7 23 -15 32 -30 30 -11 -1 -38 -3 -60 -5z"/>
<path d="M911 269 c-84 -35 -141 -47 -141 -31 0 6 5 14 10 17 6 3 10 11 10 17
0 7 -16 8 -47 3 -68 -10 -90 -21 -105 -51 -10 -22 -30 -33 -96 -55 -107 -35
-151 -74 -135 -116 6 -15 8 -13 13 11 3 16 16 37 30 47 28 21 135 47 146 36
12 -12 -50 -80 -97 -105 -37 -20 -39 -23 -14 -18 46 11 104 44 174 99 42 33
87 59 134 74 64 22 197 88 197 99 0 5 6 7 -79 -27z"/>
</g>
</svg>
